<?xml version="1.0" encoding="UTF-8" standalone="no"?>
<!DOCTYPE svg PUBLIC "-//W3C//DTD SVG 20010904//EN"
              "http://www.w3.org/TR/2001/REC-SVG-20010904/DTD/svg10.dtd">

<svg xmlns="http://www.w3.org/2000/svg"
     width="15in" height="30in"
     viewBox="0 0 1080 2160">
  <path id="Selection copy"
        fill="none" stroke="black" stroke-width="1"
        d="M 1079.99,564.06
           C 1073.56,565.29 1068.87,566.15 1063.12,569.60
             1032.34,588.09 1022.27,645.84 997.86,675.37
             983.63,692.59 976.34,688.37 958.49,693.07
             958.49,693.07 938.24,700.97 938.24,700.97
             938.24,700.97 906.19,720.74 906.19,720.74
             901.32,723.65 896.70,727.54 890.99,726.06
             868.48,719.63 851.65,734.23 845.43,726.06
             831.74,715.61 826.21,699.27 819.92,683.87
             807.08,652.43 797.72,608.96 774.27,584.38
             761.41,570.91 743.06,570.61 725.62,570.82
             711.62,570.98 706.28,573.50 693.56,576.42
             693.56,576.42 671.62,579.51 671.62,579.51
             653.25,581.73 642.50,584.83 624.37,576.47
             592.33,561.69 583.31,507.21 538.31,506.69
             533.76,506.64 527.44,506.51 523.12,507.62
             496.64,514.44 480.66,555.03 459.00,571.60
             446.08,581.49 428.13,581.24 420.18,584.78
             406.92,590.68 396.90,605.51 390.54,618.06
             390.54,618.06 355.45,692.31 355.45,692.31
             349.58,701.10 341.93,711.59 330.75,712.56
             326.52,717.28 319.94,716.02 313.87,715.93
             300.17,715.72 290.56,709.98 281.12,700.26
             266.19,684.90 258.43,667.28 237.94,656.06
             218.52,645.43 204.33,651.74 185.63,637.16
             171.76,626.35 160.12,603.66 148.47,589.44
             140.11,579.22 129.32,570.16 116.44,566.47
             100.65,561.95 83.28,566.27 62.44,558.37
             43.18,551.07 28.84,529.38 16.68,513.44
             6.75,500.41 0.03,494.67 0.00,478.00" />
</svg>
